<?xml version="1.0" standalone="no"?>
<!DOCTYPE svg PUBLIC "-//W3C//DTD SVG 20010904//EN"
 "http://www.w3.org/TR/2001/REC-SVG-20010904/DTD/svg10.dtd">
<svg version="1.0" xmlns="http://www.w3.org/2000/svg"
 width="1024.000000pt" height="1024.000000pt" viewBox="0 0 1024.000000 1024.000000"
 preserveAspectRatio="xMidYMid meet">
<metadata>
Created by potrace 1.14, written by Peter Selinger 2001-2017
</metadata>
<g transform="translate(0.000000,1024.000000) scale(0.100000,-0.100000)"
fill="#000000" stroke="none">
<path d="M0 5120 l0 -5120 5120 0 5120 0 0 5120 0 5120 -5120 0 -5120 0 0
-5120z m4740 2890 c-454 -120 -805 -315 -1068 -595 -123 -132 -136 -157 -100
-207 11 -15 0 -29 -85 -108 -246 -232 -445 -505 -592 -813 -245 -516 -317
-1094 -209 -1683 160 -880 769 -1618 1609 -1952 272 -108 499 -160 808 -186
l57 -5 0 180 0 179 75 0 75 0 0 -175 0 -175 46 0 c60 0 279 27 368 46 510 106
987 364 1352 731 439 441 686 971 759 1631 53 480 -49 1017 -280 1472 -133
261 -305 491 -542 724 l-127 125 24 25 c32 35 23 51 -90 170 -155 161 -367
321 -557 418 -188 97 -448 189 -620 219 -108 19 -55 22 69 4 148 -21 276 -54
445 -114 708 -250 1308 -786 1643 -1466 105 -213 154 -340 209 -538 145 -528
141 -1077 -10 -1621 -96 -346 -277 -699 -505 -986 -104 -131 -375 -395 -504
-492 -556 -418 -1155 -613 -1825 -595 -303 8 -461 32 -720 107 -662 194 -1238
617 -1603 1180 -266 409 -428 882 -462 1349 -64 875 181 1619 745 2261 92 106
296 295 408 380 366 277 864 494 1232 535 33 4 62 9 64 11 2 2 16 4 30 3 14 0
-39 -18 -119 -39z m650 -110 c0 -49 3 -62 18 -67 76 -25 166 -81 214 -131 73
-77 103 -131 131 -237 l24 -90 100 -16 c191 -31 403 -120 567 -237 115 -83
220 -210 292 -354 l26 -53 -53 51 c-70 67 -341 250 -458 309 -115 57 -240 99
-355 120 -129 22 -119 27 -138 -67 -30 -144 -48 -169 -295 -417 l-224 -223
-52 48 c-29 27 -126 117 -217 201 -91 84 -180 172 -198 196 -35 50 -67 126
-82 195 -21 99 -12 90 -80 80 -154 -21 -331 -79 -460 -153 -106 -60 -168 -110
-294 -238 -66 -67 -121 -116 -124 -109 -2 6 -10 12 -18 12 -20 0 -18 13 17 83
102 201 247 338 474 448 127 62 245 98 386 119 l86 13 12 61 c17 82 70 190
125 252 46 53 124 100 214 129 l52 17 0 59 0 59 155 0 155 0 0 -60z m671 -241
c203 -91 350 -191 478 -324 93 -97 110 -135 24 -53 -62 58 -116 97 -203 147
-49 28 -52 29 -25 6 17 -14 59 -45 95 -70 36 -24 93 -67 128 -95 34 -27 65
-49 69 -47 9 3 69 -101 76 -133 5 -20 -10 -9 -71 51 -90 89 -262 218 -341 258
-126 64 -343 141 -395 141 -35 0 -5 -17 69 -39 39 -12 79 -25 90 -30 11 -5 29
-12 39 -15 10 -4 17 -8 14 -11 -2 -2 -54 7 -114 22 l-111 26 -18 54 c-10 30
-40 90 -67 135 -26 45 -48 82 -48 84 0 7 238 -74 311 -107z m-1347 89 c-4 -7
-18 -26 -30 -43 -25 -34 -94 -173 -94 -191 0 -6 -21 -17 -47 -23 -342 -86
-521 -179 -701 -365 -69 -70 -73 -73 -66 -43 19 89 115 230 220 324 136 121
243 186 429 259 216 84 305 110 289 82z m-136 -771 c18 -35 55 -89 83 -121 28
-31 50 -59 48 -61 -6 -5 -224 -80 -323 -110 l-78 -24 7 47 c12 87 58 253 74
273 13 16 108 52 151 58 3 1 20 -27 38 -62z m1462 16 c90 -36 276 -129 329
-166 110 -75 235 -213 294 -323 39 -74 34 -75 -19 -5 -61 82 -174 183 -246
221 -67 36 -81 36 -35 1 72 -56 241 -267 301 -376 14 -27 19 -39 9 -26 -117
160 -293 316 -433 385 -32 16 -30 14 15 -25 93 -80 199 -200 231 -261 11 -22
-7 -10 -76 49 -80 69 -257 183 -284 183 -5 0 22 -22 60 -49 64 -45 298 -263
264 -245 -8 4 -49 33 -90 65 -108 81 -288 190 -495 299 -55 29 -104 56 -108
60 -5 4 12 36 37 70 25 34 60 89 78 122 31 59 32 59 67 53 20 -4 65 -18 101
-32z m-2489 -179 c-34 -80 -76 -239 -91 -339 -5 -38 -10 -215 -10 -392 l0
-323 -55 0 -55 0 0 148 c0 81 -3 164 -6 184 l-6 37 -33 -16 c-29 -14 -35 -14
-68 2 -61 29 -73 100 -25 145 26 24 53 25 92 5 15 -8 32 -15 36 -15 4 0 10 53
13 118 6 133 28 219 84 322 34 63 141 205 149 198 2 -3 -9 -35 -25 -74z m3441
-55 c81 -112 148 -310 148 -440 0 -38 2 -69 4 -69 2 0 17 7 32 15 42 22 62 19
95 -14 69 -69 2 -173 -88 -136 -19 8 -37 15 -39 15 -2 0 -4 -83 -4 -185 l0
-185 -54 0 -53 0 -7 61 c-3 34 -6 179 -6 323 0 189 -4 285 -15 348 -17 94 -60
242 -99 338 l-24 60 41 -46 c23 -26 54 -64 69 -85z m-2856 79 c-3 -18 -13 -93
-21 -167 -14 -127 -17 -136 -49 -175 -95 -116 -218 -291 -251 -356 -10 -19
-27 -57 -37 -85 l-18 -50 6 50 c4 28 17 77 30 109 13 33 24 62 24 65 0 14 -79
-136 -80 -151 0 -9 -5 -20 -11 -24 -12 -7 -7 169 6 261 9 60 35 156 50 186 31
60 102 158 154 213 47 49 183 156 199 156 2 0 2 -14 -2 -32z m1614 -133 c161
-81 443 -265 559 -364 46 -39 80 -71 77 -71 -3 0 -66 40 -139 89 -183 123
-367 241 -375 241 -4 -1 13 -19 38 -41 25 -23 35 -36 23 -30 -13 7 -23 10 -23
8 0 -6 122 -86 183 -122 26 -15 46 -29 43 -32 -6 -6 -156 71 -234 120 -37 24
-75 46 -84 50 -31 11 -19 -11 17 -33 19 -12 35 -26 35 -30 0 -5 32 -29 70 -54
39 -25 70 -50 70 -55 0 -6 -66 23 -147 63 -82 40 -153 75 -158 77 -33 13 -135
73 -135 80 0 11 110 129 121 129 5 0 32 -11 59 -25z m-996 -51 c76 -91 298
-238 513 -340 99 -47 311 -123 417 -150 125 -31 136 -35 136 -43 0 -4 -33 -11
-72 -14 -138 -13 -256 -61 -281 -114 -10 -23 -8 -28 16 -47 l27 -21 -26 -73
c-13 -40 -26 -94 -27 -122 -2 -43 2 -53 31 -83 46 -47 185 -123 262 -143 44
-11 92 -15 155 -12 80 3 99 8 168 42 47 23 91 54 110 76 20 24 61 52 110 75
42 20 77 41 77 46 0 5 -24 9 -53 9 -63 0 -78 9 -40 25 26 11 26 11 -73 89 -90
72 -215 144 -254 147 -34 3 89 27 140 28 103 1 266 -55 314 -108 36 -40 97
-434 81 -521 -11 -55 -38 -99 -123 -195 -160 -182 -204 -265 -318 -590 -141
-406 -234 -638 -293 -727 -118 -180 -316 -293 -548 -313 -245 -21 -566 130
-827 389 -131 131 -239 298 -280 436 -25 83 -49 244 -37 248 5 2 2 17 -9 35
-10 18 -21 52 -24 76 l-7 43 28 -6 c15 -4 37 -9 48 -12 l20 -4 -20 10 c-11 5
-32 14 -47 19 -19 7 -30 21 -39 51 -14 46 -9 56 20 40 14 -7 21 -7 21 0 0 6
-11 15 -24 20 -30 11 -36 20 -41 67 -3 21 -8 51 -11 67 -5 21 -3 27 6 21 9 -5
7 2 -3 21 -9 16 -23 62 -33 103 -25 110 -15 369 20 506 40 154 61 196 115 233
65 44 156 79 228 88 64 7 193 -3 193 -14 0 -4 -33 -24 -73 -44 -77 -40 -184
-117 -231 -167 -25 -26 -27 -31 -13 -37 29 -11 8 -24 -39 -24 -24 0 -44 -4
-44 -10 0 -13 37 -35 84 -50 23 -8 60 -34 95 -71 36 -37 80 -69 117 -86 53
-24 71 -27 169 -28 104 0 115 2 213 39 56 22 99 43 95 46 -5 4 -39 4 -78 -1
-38 -4 -122 -8 -185 -8 -101 -1 -122 2 -160 22 -30 15 -45 28 -43 40 0 10 -2
16 -5 13 -6 -7 -42 23 -42 35 0 7 62 49 74 49 3 0 6 -6 6 -14 0 -26 34 -74 64
-92 70 -41 186 -6 217 65 8 17 19 31 25 31 14 0 74 -66 74 -80 0 -5 18 -19 39
-30 l40 -20 -9 28 c-16 55 -30 81 -64 127 -20 26 -36 44 -36 40 0 -4 -7 0 -15
7 -34 31 -45 38 -58 38 -7 0 -17 3 -21 7 -9 9 -38 14 -122 20 -72 5 -139 -10
-238 -52 -21 -9 -40 -14 -43 -11 -3 2 39 26 92 52 92 44 101 47 179 47 98 -1
161 -27 232 -97 24 -24 46 -41 49 -38 3 3 5 -6 6 -19 0 -13 3 -19 5 -12 3 7
15 1 32 -17 15 -16 37 -31 50 -35 21 -6 22 -3 22 42 -1 26 -7 66 -15 88 -17
48 -17 48 -6 41 5 -3 9 0 8 7 -1 32 4 48 13 42 6 -3 7 1 3 10 -3 9 -9 13 -12
8 -3 -4 -16 -9 -28 -9 -35 -2 -7 32 36 42 49 12 51 37 7 79 -38 36 -108 66
-215 93 -96 24 -363 23 -451 -1 -106 -29 -180 -69 -248 -134 l-64 -60 7 36
c20 112 97 320 150 406 41 66 52 93 60 146 l7 44 81 24 c45 13 134 40 197 59
63 19 123 35 133 36 9 0 17 4 17 7 0 7 26 15 60 18 9 0 33 -19 54 -45z m909
-185 c194 -105 367 -201 367 -204 0 -7 -79 19 -140 45 -36 15 -81 31 -100 34
-42 8 107 -61 225 -105 96 -36 117 -46 266 -127 134 -74 196 -119 94 -68 -38
19 -113 48 -165 64 -458 144 -603 195 -757 268 -78 36 -82 39 -66 56 9 10 22
18 30 18 8 0 12 4 9 8 -3 5 8 22 24 37 17 16 30 23 30 16 0 -7 5 -9 10 -6 6 4
8 11 5 16 -6 9 2 29 11 29 3 0 74 -37 157 -81z m1192 -89 c15 -72 21 -164 17
-284 -3 -124 -21 -79 -23 59 -1 104 -11 205 -33 335 l-6 35 15 -40 c9 -22 22
-69 30 -105z m-3210 23 c-8 -48 -18 -155 -22 -238 -7 -162 -20 -165 -22 -4 -1
95 6 151 36 284 22 96 28 67 8 -42z m2406 -544 c76 -35 124 -74 54 -44 -168
73 -328 55 -436 -48 -20 -19 -42 -48 -50 -66 -8 -17 -16 -31 -19 -31 -3 0 -6
-15 -5 -32 0 -31 5 -35 33 -29 5 0 14 12 20 25 6 13 25 40 43 61 l32 37 21
-44 c23 -47 87 -88 139 -88 43 0 106 37 129 76 21 36 48 44 67 20 24 -29 -39
-97 -107 -116 -55 -15 -228 -12 -323 6 -83 15 -141 40 -122 53 6 3 34 35 63
71 30 36 66 77 80 91 35 34 112 79 153 90 59 15 155 2 228 -32z m-2871 -78 c6
-12 10 -135 10 -330 0 -298 -1 -312 -20 -331 -26 -26 -35 -25 -54 2 -11 16
-16 46 -16 105 0 70 -4 87 -24 117 -13 19 -26 53 -30 75 -8 51 10 124 35 147
16 15 19 32 19 114 0 61 4 100 12 108 18 18 56 14 68 -7z m4188 7 c8 -8 12
-45 12 -102 0 -75 4 -97 21 -125 38 -63 34 -219 -7 -235 -11 -4 -14 -28 -14
-99 0 -59 -4 -97 -12 -105 -18 -18 -56 -14 -68 7 -6 12 -10 134 -10 326 0 192
4 314 10 326 12 21 50 25 68 7z m-1478 -21 c0 -16 -9 -26 -30 -34 -17 -6 -30
-19 -30 -28 0 -9 -4 -13 -10 -10 -19 12 -10 43 21 69 38 32 49 33 49 3z
m-1290 -6 c0 -17 -18 -31 -41 -31 -10 0 -12 33 -2 43 14 15 43 7 43 -12z m-66
-33 c11 -42 8 -50 -14 -38 -19 10 -27 40 -13 53 12 12 21 7 27 -15z m1426 -32
c-5 -15 -14 -25 -19 -22 -4 3 -16 -3 -26 -14 -21 -24 -48 -26 -64 -6 -10 12
-7 15 19 14 23 -1 40 8 63 30 36 36 42 36 27 -2z m-1316 -33 c-25 -23 -47 -33
-63 -31 -34 4 -40 28 -6 28 34 0 81 24 90 47 6 14 8 15 13 3 3 -8 -10 -27 -34
-47z m-895 -120 c0 -65 -4 -127 -9 -138 -8 -19 -9 -19 -9 1 -1 23 -25 34 -73
34 l-28 0 -1 -127 c0 -71 -3 -121 -6 -113 -9 24 -25 30 -80 30 l-53 0 0 208
c0 115 3 212 7 215 3 4 62 7 130 7 l123 0 -1 -117z m3249 -100 l2 -213 -44 0
c-56 0 -93 -14 -99 -37 -3 -10 -5 42 -6 115 l-1 132 -37 0 c-52 0 -83 -10 -83
-26 0 -7 -4 -16 -10 -19 -6 -4 -10 42 -10 130 l0 136 143 -3 142 -3 3 -212z
m-3564 62 c3 -71 2 -156 -1 -188 l-6 -58 -76 3 -76 3 -2 190 c-1 105 1 184 4
177 3 -9 9 -10 17 -3 12 10 117 19 128 11 3 -3 9 -63 12 -135z m3781 -55 c1
-101 -2 -170 -8 -178 -13 -16 -128 -14 -139 2 -4 6 -8 87 -8 179 l0 168 77 -3
77 -3 1 -165z m-3772 -413 c9 -156 25 -191 183 -399 39 -51 74 -99 78 -105 6
-10 -26 -13 -143 -13 l-151 0 0 85 c0 67 3 85 14 85 28 0 26 19 -4 67 -50 78
-80 189 -80 294 l0 89 48 0 49 0 6 -103z m3688 91 c12 -18 11 -86 -2 -171 -7
-49 -25 -103 -56 -167 -28 -58 -41 -96 -34 -98 7 -2 11 -34 11 -88 l0 -84
-150 0 c-82 0 -150 2 -150 4 0 2 39 53 87 113 157 197 183 250 190 398 l6 100
45 3 c29 2 48 -2 53 -10z m-651 -40 l0 -43 -78 -18 c-42 -10 -85 -21 -95 -24
-16 -4 -15 0 6 34 19 31 37 43 93 64 38 15 70 27 72 28 1 1 2 -18 2 -41z m-10
-121 c0 -28 -28 -46 -105 -65 -44 -11 -95 -25 -112 -30 -35 -11 -41 -5 -23 28
10 18 51 34 170 64 71 18 70 18 70 3z m-20 -115 c0 -25 -33 -44 -108 -62 -46
-11 -89 -17 -94 -14 -6 4 -8 2 -5 -3 7 -11 -23 -23 -55 -23 -28 0 -21 29 10
41 20 8 230 65 250 69 1 0 2 -4 2 -8z m-20 -122 c0 -16 -31 -27 -158 -59 -133
-34 -142 -35 -142 -21 0 15 39 32 145 61 107 29 155 35 155 19z m-32 -107 c-2
-14 -38 -27 -152 -56 -81 -21 -151 -35 -154 -32 -18 18 61 48 218 85 96 23 92
23 88 3z m-28 -100 c-1 -21 -24 -32 -130 -58 -176 -43 -191 -45 -180 -26 5 10
59 31 137 53 129 36 173 44 173 31z m-40 -118 c0 -18 -27 -29 -135 -56 -117
-30 -138 -35 -162 -43 -31 -10 -31 19 -1 35 18 10 268 77 291 79 4 0 7 -7 7
-15z m-30 -109 c0 -8 -4 -17 -8 -20 -8 -5 -316 -86 -326 -86 -3 0 -6 7 -6 15
0 8 2 15 4 15 3 0 67 18 143 39 130 37 168 47 186 50 4 0 7 -5 7 -13z m-61
-132 c-22 -21 -319 -94 -319 -78 0 7 5 16 11 19 16 11 313 84 318 79 3 -2 -2
-11 -10 -20z m-2276 -8 c33 -31 43 -68 27 -107 -21 -49 -93 -74 -141 -49 -25
14 -49 62 -49 100 0 72 106 109 163 56z m2662 0 c48 -48 45 -114 -8 -146 -46
-28 -83 -25 -118 9 -42 43 -37 112 10 148 28 22 89 16 116 -11z m-477 -111
c-11 -11 -166 -45 -203 -44 -31 0 -19 5 50 20 50 10 95 21 100 23 14 6 59 7
53 1z m139 -381 c-2 -78 -4 -87 -27 -105 -58 -45 -60 -45 -60 16 0 30 -2 55
-4 55 -2 0 -44 -25 -92 -56 -49 -31 -156 -89 -239 -129 -142 -69 -192 -89
-445 -182 l-105 -38 -3 -57 -3 -58 -74 0 -74 0 -3 52 c-3 49 -4 52 -40 64 -43
15 -49 7 -42 -50 3 -28 1 -36 -11 -36 -36 0 -324 103 -430 154 -150 73 -360
203 -427 264 -26 24 -28 31 -28 105 l0 79 48 -42 c75 -67 287 -204 407 -263
154 -76 327 -138 440 -158 97 -17 300 -6 398 20 237 65 528 219 738 391 41 33
75 60 76 60 1 0 1 -39 0 -86z m-1927 -311 c167 -112 359 -202 603 -280 l107
-35 0 -68 0 -68 -117 35 c-243 71 -457 172 -663 313 -104 71 -110 80 -110 160
l0 72 48 -36 c26 -20 85 -62 132 -93z m1928 57 c-3 -66 -5 -71 -43 -104 -22
-19 -44 -35 -49 -36 -5 0 -6 19 -3 43 10 71 1 72 -116 2 -97 -56 -344 -175
-364 -175 -4 0 55 31 132 69 119 59 367 212 415 257 27 26 32 14 28 -56z m-15
-332 c-15 -17 -64 -48 -75 -48 -2 0 -1 25 0 56 l4 56 -34 -18 c-18 -9 -44 -25
-58 -34 -69 -48 -416 -208 -427 -196 -2 2 22 14 54 26 146 58 298 145 498 284
l50 34 3 -70 c2 -57 -1 -74 -15 -90z m-1966 66 c209 -144 416 -238 706 -319
l57 -16 0 -68 0 -69 -57 15 c-273 69 -539 187 -728 321 -101 72 -105 78 -105
155 0 67 1 69 19 56 11 -8 59 -41 108 -75z m1383 -14 c-8 -5 -19 -10 -25 -10
-5 0 -3 5 5 10 8 5 20 10 25 10 6 0 3 -5 -5 -10z m-380 -165 l0 -85 -75 0 -75
0 0 84 0 83 75 2 75 2 0 -86z m-1073 -23 c182 -129 409 -244 618 -312 22 -7
35 -15 29 -17 -17 -6 -265 72 -371 117 -228 97 -385 206 -358 250 9 14 8 15
82 -38z m2073 39 c0 -20 -106 -94 -240 -169 -113 -63 -420 -187 -444 -179 -5
2 28 18 75 37 143 57 319 145 446 224 67 42 125 81 128 86 8 13 35 13 35 1z
m-650 -100 c-8 -5 -26 -11 -40 -15 -21 -5 -20 -3 5 9 32 15 60 20 35 6z m-60
-261 c-8 -5 -19 -10 -25 -10 -5 0 -3 5 5 10 8 5 20 10 25 10 6 0 3 -5 -5 -10z"/>
<path d="M5100 7722 c-88 -30 -132 -57 -183 -111 -85 -91 -125 -213 -113 -346
8 -92 28 -165 60 -219 23 -40 231 -246 257 -255 7 -2 9 42 8 127 -2 148 20
265 50 260 14 -3 17 -34 21 -235 7 -303 4 -300 127 -177 48 49 123 122 166
163 86 81 119 136 143 238 19 82 14 225 -10 293 -42 116 -147 224 -250 256
-81 25 -210 28 -276 6z m108 -149 c-3 -72 -5 -78 -25 -81 -17 -3 -28 8 -52 50
-17 29 -31 59 -31 66 0 15 55 41 88 42 22 0 23 -2 20 -77z m145 50 c27 -14 28
-15 13 -36 -9 -12 -26 -39 -38 -60 -16 -26 -29 -37 -43 -35 -18 3 -20 12 -23
81 l-3 79 33 -7 c18 -4 46 -14 61 -22z m-266 -94 c25 -48 30 -66 22 -80 -13
-25 -19 -24 -90 15 l-61 34 42 46 c23 25 45 46 49 46 4 0 21 -28 38 -61z m373
9 c16 -22 30 -44 30 -47 0 -3 -26 -21 -56 -39 -44 -25 -59 -30 -70 -21 -8 6
-14 18 -14 25 0 24 54 124 67 124 7 0 26 -19 43 -42z m-152 -113 c75 -80 18
-215 -92 -215 -27 0 -45 8 -73 33 -31 29 -37 41 -41 88 -4 48 -1 59 22 86 28
33 85 54 126 47 14 -3 40 -20 58 -39z m-303 -13 c38 -21 51 -33 53 -54 3 -26
3 -26 -73 -30 l-77 -3 6 39 c7 42 22 76 34 76 4 0 30 -13 57 -28z m525 4 c5
-13 12 -39 15 -57 l6 -34 -75 3 -76 4 0 29 c0 26 7 32 53 53 66 31 66 31 77 2z
m-462 -153 c2 -16 -10 -31 -52 -62 -30 -23 -58 -41 -61 -41 -10 0 -35 68 -35
94 0 22 5 25 43 29 81 8 102 4 105 -20z m448 17 c29 0 32 -31 10 -85 l-15 -34
-65 42 c-36 23 -66 47 -66 53 0 24 26 36 69 30 24 -3 54 -6 67 -6z m-422 -173
c-14 -42 -29 -77 -33 -77 -13 0 -83 78 -80 88 2 6 29 28 59 51 44 33 57 39 67
28 11 -10 8 -27 -13 -90z m321 73 c74 -43 79 -50 52 -88 -12 -17 -27 -34 -34
-36 -15 -6 -96 121 -89 140 7 19 11 18 71 -16z m-76 -75 c23 -35 41 -69 41
-75 0 -11 -75 -49 -97 -50 -13 0 -30 161 -19 179 15 24 36 8 75 -54z"/>
<path d="M4440 7511 c-141 -43 -278 -96 -299 -116 -7 -7 60 13 150 45 90 31
192 63 227 71 37 8 62 18 62 26 0 17 6 18 -140 -26z"/>
<path d="M5600 6596 c0 -2 8 -10 18 -17 15 -13 16 -12 3 4 -13 16 -21 21 -21
13z"/>
<path d="M5645 6570 c3 -5 16 -15 28 -21 22 -12 22 -12 3 10 -19 21 -43 30
-31 11z"/>
<path d="M5787 6519 c7 -7 15 -10 18 -7 3 3 -2 9 -12 12 -14 6 -15 5 -6 -5z"/>
<path d="M4957 5873 c-3 -5 6 -24 20 -43 l24 -35 -7 30 c-8 32 -30 60 -37 48z"/>
<path d="M4778 5633 c6 -2 18 -2 25 0 6 3 1 5 -13 5 -14 0 -19 -2 -12 -5z"/>
<path d="M3990 5021 c0 -5 7 -15 17 -22 15 -13 15 -12 4 9 -12 23 -21 28 -21
13z"/>
<path d="M5060 4963 c-28 -10 -60 -46 -60 -68 0 -23 28 -55 48 -55 6 0 36 11
67 24 63 28 71 52 29 85 -26 20 -54 25 -84 14z"/>
<path d="M5315 4939 c-19 -17 -35 -34 -35 -38 0 -12 119 -61 134 -55 42 16 47
74 10 103 -37 29 -67 26 -109 -10z"/>
<path d="M5073 4569 c-47 -14 -294 -186 -290 -203 2 -4 28 -22 58 -39 l55 -31
35 26 c19 15 57 36 84 48 42 18 61 21 120 15 82 -8 137 -8 222 -4 40 3 66 0
74 -8 10 -10 6 -11 -22 -3 -53 15 -81 12 -41 -5 17 -8 32 -20 32 -27 0 -16
-101 -48 -153 -48 -21 0 -63 -9 -95 -19 -31 -11 -86 -23 -121 -27 l-65 -7 27
-23 c62 -53 233 -92 328 -74 67 13 160 64 259 143 42 34 86 68 96 74 18 12 18
14 -10 35 -16 13 -61 49 -100 81 -128 104 -224 133 -283 87 -14 -11 -35 -20
-45 -20 -11 0 -31 9 -45 20 -27 21 -67 24 -120 9z"/>
</g>
</svg>
